P2
4 3 
255
88 236 182 168 
149 136 52 238 
40 77 155 238 
